<?xml version="1.0" standalone="no"?>
<!DOCTYPE svg PUBLIC "-//W3C//DTD SVG 20010904//EN"
 "http://www.w3.org/TR/2001/REC-SVG-20010904/DTD/svg10.dtd">
<svg version="1.0" xmlns="http://www.w3.org/2000/svg"
 width="459.000000pt" height="119.000000pt" viewBox="0 0 459.000000 119.000000"
 preserveAspectRatio="xMidYMid meet">

<g transform="translate(0.000000,119.000000) scale(0.100000,-0.100000)"
fill="#30505b" stroke="none">
<path d="M80 665 l0 -375 465 0 c438 0 468 1 503 19 43 22 73 52 98 101 25 49
26 185 2 222 -17 25 -17 29 2 70 49 107 10 245 -84 303 l-49 30 -469 3 -468 3
0 -376z m898 173 c21 -21 14 -66 -11 -83 -21 -13 -72 -15 -363 -13 l-339 3 -3
53 -3 52 353 0 c262 0 357 -3 366 -12z m-15 -277 c36 -14 44 -47 19 -80 l-19
-26 -349 0 -349 0 -3 52 c-2 43 0 52 15 56 35 9 662 7 686 -2z"/>
<path d="M1210 803 c1 -337 17 -396 126 -455 80 -43 192 -58 435 -58 319 0
446 32 514 128 l30 44 3 289 3 289 -90 0 -91 0 0 -236 0 -237 -35 -32 c-52
-49 -150 -69 -345 -68 -203 1 -292 19 -337 68 l-33 35 0 235 0 235 -90 0 -90
0 0 -237z"/>
<path d="M2410 665 l0 -375 505 0 505 0 0 80 0 80 -415 0 -415 0 0 295 0 295
-90 0 -90 0 0 -375z"/>
<path d="M3480 665 l0 -375 85 0 c47 0 86 3 86 8 1 4 4 125 8 269 l6 262 74
-92 c146 -180 246 -296 256 -296 6 -1 62 61 125 136 63 76 139 162 167 193
l53 55 0 -267 0 -268 85 0 85 0 0 375 0 375 -113 0 -113 0 -94 -112 c-150
-177 -184 -216 -192 -217 -7 -1 -65 67 -216 252 l-62 77 -120 0 -120 0 0 -375z"/>
</g>
</svg>
