<?xml version="1.0" standalone="no"?>
<!DOCTYPE svg PUBLIC "-//W3C//DTD SVG 20010904//EN"
 "http://www.w3.org/TR/2001/REC-SVG-20010904/DTD/svg10.dtd">
<svg version="1.0" xmlns="http://www.w3.org/2000/svg"
 width="512.000000pt" height="512.000000pt" viewBox="0 0 512.000000 512.000000"
 preserveAspectRatio="xMidYMid meet">

<g transform="translate(0.000000,512.000000) scale(0.100000,-0.100000)"
fill="#000000" stroke="none">
<path d="M460 2561 l0 -2561 608 0 c712 0 1736 15 2042 30 118 6 260 18 315
26 414 66 772 299 997 650 83 130 170 346 202 504 122 600 -78 1141 -535 1447
-58 39 -112 72 -120 75 -8 3 14 30 60 73 242 228 382 547 398 900 29 673 -447
1252 -1124 1365 -239 40 -323 42 -1600 47 l-1243 6 0 -2561z m2461 1436 c172
-39 263 -132 289 -292 30 -189 -44 -352 -193 -425 -121 -59 -148 -61 -759 -67
l-558 -5 0 407 0 408 578 -6 c461 -4 590 -8 643 -20z m-31 -1916 c190 -24 288
-61 372 -143 118 -115 159 -336 97 -522 -37 -108 -108 -188 -206 -233 -111
-51 -161 -54 -830 -60 l-623 -5 0 492 0 492 548 -5 c328 -3 585 -9 642 -16z"/>
</g>
</svg>
