<?xml version="1.0" standalone="no"?>
<!DOCTYPE svg PUBLIC "-//W3C//DTD SVG 20010904//EN"
 "http://www.w3.org/TR/2001/REC-SVG-20010904/DTD/svg10.dtd">
<svg version="1.0" xmlns="http://www.w3.org/2000/svg"
 width="150.000000pt" height="149.000000pt" viewBox="0 0 150.000000 149.000000"
 preserveAspectRatio="xMidYMid meet">

<g transform="translate(0.000000,149.000000) scale(0.100000,-0.100000)"
fill="#000000" stroke="none">
<path d="M100 830 l0 -470 458 1 c251 0 521 4 598 8 141 7 142 8 190 42 34 25
58 53 79 93 26 52 29 68 30 150 0 68 -5 102 -19 133 -18 40 -18 42 3 97 46
123 19 258 -68 339 -88 82 -39 77 -691 77 l-580 0 0 -470z m1130 210 c15 -24
12 -56 -9 -81 l-19 -24 -435 -3 -435 -3 -4 66 -3 66 448 -3 c385 -3 449 -5
457 -18z m1 -359 c21 -25 18 -47 -9 -88 l-14 -23 -439 0 -439 0 0 64 c0 42 4
66 13 70 6 2 205 4 440 3 l429 -2 19 -24z"/>
</g>
</svg>
